# xmcd
#
# Track frame offsets:
#	150
#	19667
#	36693
#	57818
#	81918
#	99186
#	117406
#	137231
#	150446
#	167546
#
# Disc length: 2440
#
# Revision: 1
# Processed by: cddbd v1.5.1PL0 Copyright (c) Steve Scherf et al.
# Submitted via: CDex 1.40Release
# Normalized: r0:TDELIM( - )
#
DISCID=7909860a
DTITLE=Chevy Trucks - Fans Choice Awards
DYEAR=2000
DGENRE=Country
TTITLE0=Julian Austin - Back In Your Life
TTITLE1=Julian Austin - Take The Money and Run
TTITLE2=Paul Brandt - That's The Truth
TTITLE3=Paul Brandt - The Sycamore Tree
TTITLE4=Terri Clark - Everytime I Cry
TTITLE5=Terri Clark - I'm Alright
TTITLE6=Shania Twain - Rock This Country
TTITLE7=Shania Twain - Come On Over
TTITLE8=The Wilkinsons - Shame On Me
TTITLE9=The Wilkinsons - Jimmy's Got A Girlfriend
EXTD=YEAR: 2000 ID3G: 2
EXTT0=
EXTT1=
EXTT2=
EXTT3=
EXTT4=
EXTT5=
EXTT6=
EXTT7=
EXTT8=
EXTT9=
PLAYORDER=
